<?xml version="1.0" encoding="UTF-8" standalone="no"?>
<!DOCTYPE svg PUBLIC "-//W3C//DTD SVG 1.1//EN" "http://www.w3.org/Graphics/SVG/1.1/DTD/svg11.dtd">
<svg width="100%" height="100%" viewBox="0 0 457 132" version="1.1" xmlns="http://www.w3.org/2000/svg" xmlns:xlink="http://www.w3.org/1999/xlink" xml:space="preserve" xmlns:serif="http://www.serif.com/" style="fill-rule:evenodd;clip-rule:evenodd;stroke-linejoin:round;stroke-miterlimit:1.41421;">
    <g transform="matrix(1,0,0,1,-114.025,-124.364)">
        <g transform="matrix(0.941694,0,0,0.919282,-564.832,-306.217)">
            <g transform="matrix(1.00322e-16,-2.50922,2.3912,1.00322e-16,-727.574,1868.63)">
                <path d="M507.958,605.75C509.452,605.713 510.701,605.935 511.707,606.414C512.712,606.894 513.51,607.576 514.1,608.462C514.395,608.904 514.616,609.411 514.764,609.983C514.801,610.076 514.833,610.195 514.861,610.343C514.888,610.491 514.884,610.62 514.847,610.73C514.773,610.933 514.644,611.048 514.46,611.076C514.275,611.104 514.054,611.118 513.796,611.118L512.357,611.118C512.191,611.118 512.02,611.118 511.845,611.118C511.67,611.118 511.527,611.081 511.416,611.007C511.269,610.933 511.167,610.818 511.112,610.661C511.057,610.504 510.983,610.343 510.891,610.177C510.78,609.974 510.66,609.79 510.531,609.624C510.402,609.458 510.254,609.31 510.088,609.181C509.83,609.015 509.544,608.886 509.23,608.794C509.12,608.757 509.009,608.738 508.898,608.738C508.788,608.738 508.686,608.72 508.594,608.683L508.317,608.683C507.949,608.683 507.653,608.72 507.432,608.794C506.897,608.96 506.464,609.213 506.132,609.554C505.8,609.896 505.532,610.306 505.329,610.786C505.237,610.989 505.168,611.205 505.122,611.436C505.076,611.666 505.025,611.911 504.97,612.169C504.951,612.243 504.942,612.317 504.942,612.39C504.942,612.464 504.933,612.538 504.914,612.612C504.877,612.796 504.864,613.054 504.873,613.386C504.882,613.718 504.905,613.977 504.942,614.161C504.942,614.309 504.951,614.41 504.97,614.465C505.007,614.595 505.03,614.724 505.039,614.853C505.048,614.982 505.071,615.111 505.108,615.24C505.256,615.664 505.431,616.052 505.634,616.402C505.837,616.753 506.095,617.048 506.408,617.288C506.482,617.343 506.593,617.407 506.74,617.481C506.943,617.61 507.151,617.693 507.363,617.73C507.575,617.767 507.838,617.804 508.151,617.841C508.188,617.841 508.244,617.841 508.317,617.841C508.391,617.841 508.447,617.832 508.483,617.813L508.732,617.813C508.862,617.776 508.986,617.744 509.106,617.716C509.226,617.689 509.341,617.656 509.452,617.62C510.005,617.38 510.429,617.029 510.725,616.568C510.798,616.476 510.863,616.37 510.918,616.25C510.974,616.13 511.02,616.024 511.057,615.932C511.13,615.729 511.195,615.549 511.25,615.392C511.306,615.236 511.435,615.111 511.638,615.019C511.804,614.945 512.071,614.913 512.44,614.922C512.809,614.931 513.113,614.936 513.353,614.936C513.482,614.936 513.616,614.931 513.754,614.922C513.892,614.913 514.008,614.927 514.1,614.963L514.321,614.963C514.395,614.982 514.469,614.996 514.543,615.005C514.616,615.014 514.672,615.037 514.709,615.074C514.801,615.148 514.861,615.254 514.888,615.392C514.916,615.531 514.912,615.674 514.875,615.821C514.709,616.43 514.506,616.974 514.266,617.454C513.51,618.874 512.302,619.861 510.642,620.414C510.457,620.469 510.263,620.511 510.061,620.538C509.858,620.566 509.655,620.608 509.452,620.663C509.341,620.681 509.23,620.691 509.12,620.691C509.009,620.691 508.898,620.7 508.788,620.718L508.483,620.718C508.391,620.755 508.253,620.769 508.068,620.76C507.884,620.751 507.746,620.737 507.653,620.718C507.506,620.681 507.372,620.668 507.252,620.677C507.132,620.686 507.008,620.672 506.879,620.635C506.787,620.617 506.694,620.603 506.602,620.594C506.51,620.585 506.418,620.571 506.325,620.552C506.122,620.497 505.929,620.442 505.744,620.386C505.56,620.331 505.385,620.266 505.219,620.193C504.352,619.824 503.623,619.349 503.033,618.768C502.443,618.187 501.963,617.463 501.594,616.596C501.502,616.43 501.428,616.25 501.373,616.056C501.318,615.863 501.262,615.664 501.207,615.461C501.188,615.388 501.179,615.319 501.179,615.254C501.179,615.189 501.161,615.111 501.124,615.019C501.087,614.89 501.069,614.756 501.069,614.618C501.069,614.479 501.05,614.346 501.013,614.216L501.013,613.746C500.976,613.654 500.958,613.548 500.958,613.428C500.958,613.308 500.976,613.202 501.013,613.11C501.032,613.017 501.032,612.934 501.013,612.861C500.995,612.787 500.995,612.713 501.013,612.639C501.05,612.51 501.064,612.39 501.055,612.28C501.046,612.169 501.059,612.058 501.096,611.948C501.188,611.616 501.262,611.297 501.318,610.993C501.373,610.689 501.456,610.389 501.567,610.094C501.972,609.153 502.484,608.369 503.102,607.742C503.72,607.115 504.509,606.608 505.468,606.221C505.726,606.11 505.993,606.031 506.27,605.985C506.547,605.939 506.833,605.879 507.128,605.805C507.275,605.787 507.414,605.778 507.543,605.778C507.672,605.778 507.81,605.769 507.958,605.75Z" style="fill:rgb(11,11,11);fill-rule:nonzero;"/>
                <path d="M531.586,612.695C531.623,612.805 531.641,612.962 531.641,613.165C531.641,613.368 531.623,613.525 531.586,613.635L531.586,613.912C531.549,614.06 531.535,614.207 531.544,614.355C531.554,614.502 531.54,614.65 531.503,614.797C531.466,614.927 531.438,615.046 531.42,615.157C531.401,615.268 531.383,615.388 531.364,615.517C531.291,615.72 531.226,615.927 531.171,616.139C531.115,616.351 531.042,616.55 530.949,616.734C530.562,617.62 530.055,618.339 529.428,618.892C528.801,619.446 528.044,619.907 527.159,620.276C526.938,620.368 526.712,620.437 526.481,620.483C526.251,620.529 526.015,620.58 525.776,620.635C525.683,620.672 525.582,620.691 525.471,620.691C525.361,620.691 525.259,620.7 525.167,620.718C525.112,620.718 525.052,620.723 524.987,620.732C524.923,620.741 524.863,620.746 524.807,620.746C524.715,620.764 524.567,620.778 524.365,620.787C524.162,620.797 524.005,620.783 523.894,620.746L523.618,620.746C523.525,620.728 523.429,620.723 523.327,620.732C523.226,620.741 523.129,620.728 523.037,620.691C522.963,620.672 522.894,620.663 522.829,620.663C522.764,620.663 522.686,620.654 522.594,620.635C522.409,620.58 522.225,620.534 522.041,620.497C521.856,620.46 521.681,620.405 521.515,620.331C521.294,620.257 521.086,620.183 520.892,620.11C520.699,620.036 520.5,619.944 520.297,619.833C519.652,619.446 519.099,618.994 518.637,618.477C518.176,617.961 517.789,617.343 517.475,616.623C517.383,616.457 517.314,616.282 517.268,616.098C517.222,615.913 517.171,615.72 517.116,615.517C517.079,615.425 517.06,615.342 517.06,615.268C517.06,615.194 517.042,615.111 517.005,615.019C516.968,614.871 516.95,614.719 516.95,614.562C516.95,614.405 516.931,614.253 516.894,614.106C516.876,614.014 516.867,613.931 516.867,613.857C516.867,613.783 516.867,613.7 516.867,613.608C516.83,613.497 516.816,613.34 516.825,613.137C516.834,612.934 516.857,612.778 516.894,612.667L516.894,612.473C516.913,612.381 516.917,612.284 516.908,612.183C516.899,612.081 516.913,611.985 516.95,611.892C516.968,611.8 516.977,611.713 516.977,611.63C516.977,611.547 516.996,611.459 517.033,611.367C517.106,611.127 517.171,610.892 517.226,610.661C517.282,610.431 517.355,610.205 517.448,609.983C517.78,609.227 518.176,608.595 518.637,608.088C519.099,607.581 519.661,607.115 520.325,606.691C520.51,606.599 520.703,606.516 520.906,606.442C521.109,606.368 521.312,606.285 521.515,606.193C521.755,606.101 522.004,606.036 522.262,605.999C522.52,605.962 522.788,605.907 523.064,605.833C523.212,605.815 523.35,605.805 523.479,605.805C523.608,605.805 523.737,605.796 523.867,605.778C524.936,605.759 525.863,605.87 526.647,606.11C527.431,606.35 528.127,606.682 528.736,607.106C528.939,607.253 529.146,607.415 529.359,607.59C529.571,607.765 529.751,607.954 529.898,608.157C530.046,608.342 530.179,608.526 530.299,608.711C530.419,608.895 530.544,609.089 530.673,609.292C530.802,609.494 530.903,609.711 530.977,609.942C531.051,610.172 531.134,610.417 531.226,610.675C531.281,610.823 531.328,610.979 531.364,611.145C531.401,611.311 531.438,611.477 531.475,611.643C531.494,611.717 531.503,611.791 531.503,611.865C531.503,611.938 531.512,612.012 531.53,612.086C531.567,612.178 531.577,612.28 531.558,612.39C531.54,612.501 531.549,612.602 531.586,612.695ZM527.712,613.691C527.731,613.599 527.74,613.465 527.74,613.29C527.74,613.114 527.731,612.981 527.712,612.888L527.712,612.667C527.675,612.575 527.657,612.473 527.657,612.363C527.657,612.252 527.648,612.151 527.629,612.058C527.629,611.985 527.62,611.929 527.602,611.892C527.565,611.745 527.533,611.593 527.505,611.436C527.477,611.279 527.436,611.127 527.38,610.979C527.177,610.5 526.938,610.089 526.661,609.748C526.384,609.407 526.015,609.135 525.554,608.932C525.444,608.895 525.333,608.863 525.222,608.835C525.112,608.807 524.992,608.775 524.863,608.738C524.715,608.701 524.558,608.688 524.392,608.697C524.226,608.706 524.06,608.711 523.894,608.711C523.839,608.747 523.774,608.761 523.701,608.752C523.627,608.743 523.562,608.747 523.507,608.766C523.378,608.803 523.253,608.835 523.133,608.863C523.014,608.89 522.907,608.932 522.815,608.987C522.354,609.19 521.981,609.481 521.695,609.859C521.409,610.237 521.183,610.675 521.017,611.173C520.961,611.357 520.92,611.551 520.892,611.754C520.865,611.957 520.832,612.16 520.795,612.363C520.777,612.455 520.768,612.547 520.768,612.639C520.768,612.732 520.768,612.824 520.768,612.916C520.731,613.045 520.717,613.239 520.726,613.497C520.736,613.755 520.759,613.949 520.795,614.078L520.795,614.327C520.832,614.475 520.86,614.618 520.878,614.756C520.897,614.894 520.925,615.037 520.961,615.185C521.146,615.738 521.344,616.185 521.556,616.527C521.768,616.868 522.105,617.177 522.566,617.454C522.695,617.546 522.838,617.62 522.995,617.675C523.152,617.73 523.313,617.776 523.479,617.813C523.553,617.832 523.618,617.836 523.673,617.827C523.728,617.818 523.793,617.822 523.867,617.841C523.94,617.859 524.019,617.873 524.102,617.882C524.185,617.892 524.263,617.887 524.337,617.869L524.558,617.869C524.706,617.832 524.853,617.804 525.001,617.786C525.149,617.767 525.287,617.73 525.416,617.675C525.896,617.49 526.283,617.241 526.578,616.928C526.873,616.614 527.122,616.227 527.325,615.766C527.399,615.581 527.454,615.397 527.491,615.212C527.528,615.028 527.574,614.834 527.629,614.631C527.648,614.558 527.657,614.488 527.657,614.424C527.657,614.359 527.666,614.29 527.685,614.216C527.685,614.124 527.685,614.037 527.685,613.954C527.685,613.871 527.694,613.783 527.712,613.691Z" style="fill:rgb(11,11,11);fill-rule:nonzero;"/>
                <path d="M542.321,605.778C542.524,605.778 542.704,605.796 542.86,605.833C543.017,605.87 543.142,605.953 543.234,606.082C543.345,606.23 543.4,606.483 543.4,606.843C543.4,607.203 543.4,607.521 543.4,607.798C543.4,608 543.404,608.231 543.414,608.489C543.423,608.747 543.391,608.95 543.317,609.098C543.243,609.227 543.137,609.31 542.999,609.347C542.86,609.384 542.704,609.402 542.528,609.402C542.353,609.402 542.169,609.393 541.975,609.375C541.781,609.356 541.601,609.365 541.435,609.402C541.306,609.439 541.177,609.462 541.048,609.471C540.919,609.481 540.799,609.504 540.688,609.541C540.393,609.633 540.098,609.767 539.803,609.942C539.508,610.117 539.277,610.315 539.111,610.537C539.019,610.684 538.922,610.836 538.821,610.993C538.719,611.15 538.623,611.311 538.53,611.477C538.475,611.625 538.424,611.777 538.378,611.934C538.332,612.091 538.291,612.243 538.254,612.39C538.217,612.519 538.198,612.653 538.198,612.792C538.198,612.93 538.18,613.064 538.143,613.193C538.125,613.266 538.12,613.336 538.129,613.4C538.138,613.465 538.134,613.525 538.115,613.58L538.115,614.023C538.078,614.152 538.069,614.295 538.088,614.452C538.106,614.608 538.115,614.761 538.115,614.908L538.115,619.031C538.115,619.27 538.106,619.492 538.088,619.695C538.069,619.897 538.014,620.063 537.922,620.193C537.885,620.248 537.825,620.289 537.742,620.317C537.659,620.345 537.571,620.368 537.479,620.386L537.341,620.386C537.248,620.405 537.147,620.414 537.036,620.414C536.926,620.414 536.824,620.414 536.732,620.414L535.542,620.414C535.432,620.395 535.316,620.386 535.196,620.386C535.077,620.386 534.952,620.386 534.823,620.386C534.731,620.349 534.638,620.317 534.546,620.289C534.454,620.262 534.389,620.202 534.353,620.11C534.279,620.017 534.237,619.884 534.228,619.708C534.219,619.533 534.214,619.353 534.214,619.169L534.214,617.288L534.214,609.485L534.214,607.438C534.214,607.253 534.214,607.074 534.214,606.898C534.214,606.723 534.251,606.58 534.325,606.47C534.417,606.322 534.555,606.23 534.74,606.193C534.924,606.156 535.146,606.138 535.404,606.138L536.815,606.138C537.036,606.138 537.23,606.151 537.396,606.179C537.562,606.207 537.691,606.294 537.783,606.442C537.839,606.534 537.871,606.663 537.88,606.829C537.889,606.995 537.903,607.157 537.922,607.313C537.94,607.47 537.972,607.613 538.019,607.742C538.065,607.871 538.152,607.936 538.281,607.936C538.318,607.899 538.355,607.881 538.392,607.881C538.429,607.881 538.466,607.862 538.503,607.825C538.613,607.733 538.71,607.627 538.793,607.507C538.876,607.387 538.982,607.281 539.111,607.189C539.185,607.134 539.25,607.074 539.305,607.009C539.36,606.944 539.425,606.885 539.499,606.829C539.665,606.719 539.835,606.608 540.011,606.497C540.186,606.387 540.366,606.285 540.55,606.193C540.735,606.119 540.924,606.055 541.117,605.999C541.311,605.944 541.509,605.889 541.712,605.833C541.767,605.815 541.874,605.81 542.03,605.819C542.187,605.829 542.284,605.815 542.321,605.778Z" style="fill:rgb(11,11,11);fill-rule:nonzero;"/>
                <path d="M558.008,613.137C558.045,613.285 558.045,613.451 558.008,613.635C557.971,613.82 557.907,613.94 557.815,613.995C557.722,614.069 557.589,614.12 557.413,614.147C557.238,614.175 557.045,614.193 556.832,614.203C556.62,614.212 556.408,614.212 556.196,614.203C555.984,614.193 555.795,614.189 555.629,614.189L548.878,614.189C548.749,614.189 548.624,614.189 548.504,614.189C548.385,614.189 548.279,614.207 548.186,614.244C548.039,614.318 547.947,614.392 547.91,614.465C547.873,614.502 547.836,614.571 547.799,614.673C547.762,614.774 547.753,614.871 547.771,614.963C547.808,615.074 547.831,615.18 547.84,615.282C547.85,615.383 547.873,615.489 547.91,615.6C548.057,616.042 548.237,616.407 548.449,616.693C548.661,616.979 548.952,617.232 549.321,617.454C549.468,617.546 549.62,617.606 549.777,617.633C549.934,617.661 550.095,617.703 550.261,617.758C550.409,617.795 550.612,617.822 550.87,617.841C551.128,617.859 551.35,617.85 551.534,617.813L551.783,617.813C551.968,617.776 552.138,617.735 552.295,617.689C552.452,617.643 552.604,617.592 552.751,617.537C552.936,617.444 553.143,617.324 553.374,617.177C553.605,617.029 553.775,616.882 553.886,616.734C553.978,616.605 554.075,616.481 554.176,616.361C554.278,616.241 554.402,616.153 554.55,616.098C554.734,616.006 554.969,615.964 555.255,615.973C555.541,615.983 555.804,615.987 556.044,615.987C556.155,615.987 556.27,615.983 556.39,615.973C556.51,615.964 556.616,615.978 556.708,616.015L556.985,616.015C557.169,616.052 557.298,616.098 557.372,616.153C557.446,616.19 557.487,616.273 557.496,616.402C557.506,616.531 557.492,616.642 557.455,616.734C557.363,616.992 557.261,617.223 557.151,617.426C557.04,617.629 556.911,617.832 556.763,618.035C556.357,618.643 555.896,619.132 555.38,619.501C554.863,619.87 554.218,620.183 553.443,620.442C553.24,620.515 553.037,620.561 552.834,620.58C552.632,620.598 552.419,620.635 552.198,620.691C552.124,620.709 552.046,620.714 551.963,620.704C551.88,620.695 551.802,620.7 551.728,620.718L551.423,620.718C551.331,620.755 551.225,620.769 551.105,620.76C550.985,620.751 550.879,620.737 550.787,620.718C550.639,620.7 550.51,620.7 550.4,620.718C550.289,620.737 550.169,620.728 550.04,620.691C549.948,620.654 549.846,620.635 549.736,620.635C549.625,620.635 549.524,620.617 549.431,620.58C549.228,620.543 549.026,620.502 548.823,620.455C548.62,620.409 548.435,620.34 548.269,620.248C548.066,620.174 547.877,620.105 547.702,620.04C547.527,619.976 547.366,619.897 547.218,619.805C546.628,619.436 546.102,619.008 545.641,618.519C545.18,618.03 544.802,617.463 544.507,616.817C544.414,616.614 544.341,616.407 544.285,616.195C544.23,615.983 544.156,615.766 544.064,615.544C544.045,615.471 544.036,615.402 544.036,615.337C544.036,615.272 544.027,615.203 544.009,615.129C543.935,614.908 543.889,614.668 543.87,614.41C543.852,614.152 543.833,613.894 543.815,613.635C543.815,613.543 543.81,613.442 543.801,613.331C543.792,613.22 543.796,613.119 543.815,613.027L543.815,612.695L543.898,612.031C543.972,611.717 544.036,611.413 544.092,611.118C544.147,610.823 544.23,610.546 544.341,610.288C545.134,608.369 546.48,607.014 548.38,606.221C548.638,606.11 548.901,606.031 549.169,605.985C549.436,605.939 549.717,605.879 550.012,605.805C550.16,605.787 550.298,605.778 550.427,605.778C550.556,605.778 550.695,605.769 550.842,605.75C551.783,605.732 552.59,605.838 553.263,606.068C553.937,606.299 554.541,606.599 555.076,606.968C555.242,607.078 555.408,607.203 555.574,607.341C555.74,607.479 555.887,607.622 556.016,607.77C556.072,607.862 556.145,607.936 556.238,607.991C556.385,608.194 556.523,608.402 556.653,608.614C556.782,608.826 556.92,609.043 557.068,609.264C557.16,609.43 557.238,609.601 557.303,609.776C557.367,609.951 557.436,610.14 557.51,610.343C557.602,610.583 557.676,610.832 557.732,611.09C557.787,611.348 557.851,611.606 557.925,611.865C557.962,612.012 557.976,612.174 557.967,612.349C557.958,612.524 557.971,612.685 558.008,612.833L558.008,613.137ZM553.858,611.505C553.987,611.321 554.001,611.095 553.9,610.827C553.798,610.56 553.72,610.361 553.664,610.232C553.406,609.734 553.065,609.352 552.641,609.084C552.217,608.817 551.626,608.674 550.87,608.655C550.815,608.692 550.75,608.701 550.676,608.683C550.603,608.664 550.538,608.664 550.483,608.683C550.39,608.72 550.289,608.743 550.178,608.752C550.068,608.761 549.966,608.784 549.874,608.821C549.062,609.079 548.463,609.587 548.076,610.343C548.039,610.417 547.997,610.514 547.951,610.633C547.905,610.753 547.873,610.873 547.854,610.993C547.836,611.113 547.84,611.228 547.868,611.339C547.896,611.45 547.956,611.542 548.048,611.616C548.196,611.708 548.398,611.754 548.657,611.754L552.475,611.754C552.733,611.754 553.005,611.749 553.291,611.74C553.577,611.731 553.766,611.653 553.858,611.505Z" style="fill:rgb(11,11,11);fill-rule:nonzero;"/>
            </g>
            <g transform="matrix(0.473448,0,0,0.24304,768.601,474.379)">
                <g transform="matrix(1.83574,0,0,3.57607,0,0)">
                    <path d="M81.323,-3.47C96.503,-3.759 109.009,-1.157 118.84,4.337C128.671,9.831 136.478,17.132 142.261,26.24C143.851,28.698 145.152,31.192 146.164,33.722C147.176,36.252 148.116,39.035 148.983,42.071C149.273,43.083 149.562,44.24 149.851,45.541C150.14,46.842 150.068,48.071 149.634,49.227C149.345,50.095 148.803,50.637 148.008,50.854C147.212,51.071 146.309,51.324 145.297,51.613L143.562,51.613C142.695,51.902 141.719,52.01 140.634,51.938C139.55,51.866 138.502,51.83 137.49,51.83C136.189,51.83 134.635,51.866 132.827,51.938C131.02,52.01 129.249,52.01 127.514,51.938C125.779,51.866 124.189,51.721 122.743,51.504C121.298,51.288 120.213,50.962 119.49,50.529C118.334,49.517 117.466,48.143 116.888,46.408C116.31,44.673 115.587,43.155 114.719,41.854C111.973,37.083 108.358,33.324 103.876,30.577C100.84,28.698 97.443,27.18 93.684,26.023C91.226,25.156 88.154,24.722 84.467,24.722C80.781,24.722 77.564,25.084 74.817,25.806C73.66,26.096 72.612,26.349 71.673,26.565C70.733,26.782 69.757,27.108 68.745,27.541C58.914,31.734 51.974,38.674 47.926,48.36C47.203,50.095 46.553,51.902 45.975,53.782C45.396,55.661 44.746,57.613 44.023,59.637C43.878,60.649 43.734,61.589 43.589,62.456C43.444,63.323 43.3,64.263 43.155,65.275C42.866,66.143 42.758,67.046 42.83,67.986C42.902,68.926 42.794,69.902 42.505,70.914C42.216,72.07 42.107,73.263 42.179,74.492C42.252,75.721 42.288,76.913 42.288,78.07C42.288,78.648 42.252,79.227 42.179,79.805C42.107,80.383 42.143,80.961 42.288,81.54L42.288,83.491C42.577,84.214 42.685,84.937 42.613,85.66C42.541,86.383 42.649,87.106 42.938,87.829C42.938,88.696 43.083,89.853 43.372,91.298C43.661,92.889 43.95,94.371 44.24,95.744C44.529,97.118 44.89,98.455 45.324,99.756C47.348,105.828 49.95,110.997 53.131,115.262C56.312,119.527 60.504,123.032 65.709,125.779C67.299,126.502 68.962,127.117 70.697,127.623C72.432,128.129 74.311,128.671 76.335,129.249C77.058,129.394 77.745,129.502 78.395,129.574C79.046,129.647 79.733,129.683 80.455,129.683L82.19,129.683C82.913,129.972 83.853,130.08 85.01,130.008C86.166,129.936 87.106,129.827 87.829,129.683C88.696,129.683 89.347,129.611 89.78,129.466C91.515,129.177 93.142,128.888 94.66,128.599C96.178,128.309 97.66,127.803 99.105,127.081C102.431,125.635 105.286,123.719 107.671,121.334C110.057,118.948 112.189,116.237 114.069,113.201C114.936,111.756 115.659,110.165 116.237,108.43C116.816,106.696 117.466,104.961 118.189,103.226C118.623,101.636 119.057,100.19 119.49,98.889C119.924,97.587 120.864,96.575 122.31,95.853C123.177,95.563 124.261,95.419 125.563,95.419L146.49,95.419C147.863,95.419 148.983,95.708 149.851,96.286C150.863,97.009 151.405,98.166 151.477,99.756C151.55,101.346 151.369,102.864 150.935,104.31L149.634,110.165C148.911,112.334 148.224,114.43 147.574,116.454C146.923,118.478 146.092,120.43 145.08,122.31C144.357,123.466 143.779,124.587 143.345,125.671C142.911,126.755 142.333,127.803 141.61,128.815C133.659,141.249 122.093,149.923 106.912,154.839C105.322,155.417 103.732,155.851 102.142,156.14C100.551,156.429 98.961,156.718 97.371,157.007C96.648,157.296 95.961,157.405 95.31,157.333C94.66,157.26 93.973,157.369 93.25,157.658C92.238,157.658 91.262,157.694 90.323,157.766C89.383,157.839 88.407,157.947 87.395,158.092L83.925,158.092C82.624,158.092 81.323,158.092 80.022,158.092C78.721,158.092 77.492,157.947 76.335,157.658C75.901,157.513 75.178,157.441 74.166,157.441C73.154,157.296 72.142,157.152 71.13,157.007C70.118,156.863 69.034,156.718 67.877,156.574C66.432,156.14 65.022,155.778 63.649,155.489C62.275,155.2 60.866,154.839 59.42,154.405C58.119,153.971 56.818,153.501 55.516,152.995C54.215,152.489 52.986,151.947 51.83,151.369C43.155,147.61 35.818,142.586 29.818,136.297C23.819,130.008 18.939,122.526 15.18,113.852C14.313,111.683 13.59,109.515 13.012,107.346C12.433,105.178 11.783,102.937 11.06,100.623C10.771,99.901 10.626,99.286 10.626,98.78C10.626,98.274 10.554,97.732 10.409,97.154C10.12,95.853 9.903,94.479 9.759,93.033C9.614,91.588 9.397,90.214 9.108,88.913C8.819,88.19 8.711,87.576 8.783,87.07C8.855,86.564 8.819,86.022 8.674,85.443L8.674,81.323C8.385,80.6 8.241,79.516 8.241,78.07C8.241,76.624 8.385,75.54 8.674,74.817C8.819,74.383 8.855,73.913 8.783,73.407C8.711,72.901 8.674,72.504 8.674,72.215L8.674,70.263C8.964,69.106 9.144,67.877 9.217,66.576C9.289,65.275 9.397,63.974 9.542,62.673C9.831,61.516 10.048,60.396 10.192,59.311C10.337,58.227 10.554,57.107 10.843,55.95C11.421,53.926 11.927,51.938 12.361,49.986C12.795,48.035 13.373,46.191 14.096,44.456C14.819,42.577 15.578,40.698 16.373,38.818C17.168,36.939 18.072,35.204 19.084,33.613C21.397,29.565 23.782,25.951 26.24,22.77C26.963,21.758 27.758,20.819 28.626,19.951C29.493,19.084 30.361,18.216 31.228,17.349C34.842,13.735 38.637,10.662 42.613,8.132C46.589,5.602 51.107,3.325 56.167,1.301C57.902,0.578 59.709,-0.036 61.589,-0.542C63.468,-1.048 65.42,-1.518 67.444,-1.952C68.311,-2.241 69.179,-2.385 70.046,-2.385C70.914,-2.385 71.709,-2.53 72.432,-2.819C73.588,-2.964 74.709,-3.072 75.793,-3.144C76.877,-3.217 77.998,-3.325 79.154,-3.47C79.443,-3.614 79.805,-3.614 80.239,-3.47C80.672,-3.325 81.034,-3.325 81.323,-3.47Z" style="fill:rgb(11,11,11);fill-rule:nonzero;"/>
                </g>
                <g transform="matrix(1.83574,0,0,3.57607,0,0)">
                    <path d="M181.946,0.217L217.403,0.217C219.789,0.217 221.632,0.723 222.933,1.735C223.945,2.458 224.668,3.506 225.102,4.879C225.535,6.253 225.969,7.59 226.403,8.891C227.27,11.204 228.102,13.554 228.897,15.939C229.692,18.325 230.523,20.746 231.391,23.204C234.716,32.312 237.86,41.565 240.824,50.962C243.788,60.36 247.005,69.685 250.474,78.937C251.631,81.829 252.643,84.793 253.51,87.829C254.378,90.865 255.39,93.829 256.547,96.72C256.836,97.443 257.125,98.166 257.414,98.889C257.703,99.611 258.209,100.19 258.932,100.623C259.221,100.768 259.51,100.913 259.799,101.057C260.089,101.202 260.378,101.13 260.667,100.84C261.823,100.551 262.619,99.684 263.052,98.238C263.486,96.792 263.92,95.491 264.354,94.335C265.51,91.009 266.558,87.72 267.498,84.467C268.438,81.214 269.486,77.925 270.642,74.6C273.534,65.781 276.425,56.926 279.317,48.035C282.208,39.143 285.1,30.216 287.991,21.252C288.714,18.939 289.437,16.662 290.16,14.421C290.883,12.18 291.606,9.903 292.329,7.59C292.762,6.434 293.196,5.277 293.63,4.12C294.063,2.964 294.859,2.024 296.015,1.301C296.883,0.578 298.003,0.217 299.377,0.217L336.677,0.217C338.05,0.217 339.098,0.506 339.821,1.084C341.411,1.952 342.207,3.578 342.207,5.964L342.207,145.297C342.207,146.887 342.17,148.441 342.098,149.959C342.026,151.477 341.556,152.598 340.689,153.321C339.821,154.044 338.737,154.441 337.436,154.513C336.135,154.586 334.689,154.622 333.098,154.622L322.689,154.622L316.834,154.622C315.677,154.333 314.701,154.116 313.906,153.971C313.111,153.827 312.424,153.321 311.846,152.453C311.268,151.73 310.979,150.791 310.979,149.634C310.979,148.477 310.979,147.249 310.979,145.947L310.979,134.888L310.979,79.154C310.834,77.13 310.762,75.215 310.762,73.407C310.762,71.6 310.762,69.757 310.762,67.877C310.762,66.721 310.798,65.528 310.87,64.299C310.942,63.07 310.834,61.878 310.545,60.721C310.256,59.709 310.111,58.625 310.111,57.468C310.111,56.312 309.677,55.589 308.81,55.3C308.376,55.155 308.051,55.227 307.834,55.516C307.617,55.806 307.437,56.022 307.292,56.167C306.714,56.745 306.244,57.432 305.882,58.227C305.521,59.022 305.196,59.781 304.907,60.504C304.039,62.673 303.208,64.914 302.413,67.227C301.617,69.54 300.786,71.853 299.919,74.166C299.63,75.034 299.377,75.901 299.16,76.769C298.943,77.636 298.618,78.504 298.184,79.371C297.461,81.251 296.81,83.13 296.232,85.01C295.654,86.889 295.003,88.768 294.28,90.648C293.991,91.082 293.847,91.551 293.847,92.057C293.847,92.563 293.702,93.033 293.413,93.467C292.835,94.768 292.365,96.142 292.003,97.587C291.642,99.033 291.1,100.479 290.377,101.925C289.799,103.226 289.329,104.599 288.967,106.045C288.606,107.491 288.136,108.936 287.558,110.382C285.823,114.575 284.305,118.804 283.004,123.069C281.702,127.334 280.257,131.562 278.666,135.755C278.377,136.189 278.233,136.622 278.233,137.056C278.233,137.49 278.088,137.924 277.799,138.357C277.076,139.948 276.498,141.574 276.064,143.237C275.63,144.899 275.052,146.526 274.329,148.116C273.895,149.128 273.498,150.068 273.136,150.935C272.775,151.803 272.233,152.526 271.51,153.104C270.787,153.682 270.064,154.007 269.341,154.08C268.618,154.152 267.751,154.333 266.739,154.622L261.751,154.622C260.739,154.622 259.546,154.658 258.173,154.73C256.8,154.803 255.426,154.839 254.053,154.839C252.679,154.839 251.414,154.766 250.258,154.622C249.101,154.477 248.234,154.188 247.655,153.754C246.499,153.032 245.703,152.2 245.27,151.261C244.836,150.321 244.33,149.2 243.752,147.899C243.029,146.164 242.414,144.393 241.908,142.586C241.402,140.779 240.788,139.008 240.065,137.273L239.415,135.321C238.692,133.586 238.041,131.743 237.463,129.791C236.884,127.84 236.234,125.996 235.511,124.261C235.366,123.828 235.258,123.43 235.186,123.069C235.113,122.707 235.005,122.31 234.86,121.876C234.138,120.575 233.559,119.201 233.126,117.756C232.692,116.31 232.186,114.864 231.608,113.418C231.463,113.129 231.355,112.768 231.282,112.334C231.21,111.9 231.102,111.539 230.957,111.25C230.379,109.804 229.909,108.358 229.547,106.912C229.186,105.467 228.644,104.021 227.921,102.575C226.764,99.684 225.68,96.648 224.668,93.467C223.656,90.286 222.572,87.178 221.415,84.142C220.114,80.528 218.885,76.841 217.728,73.082C216.572,69.323 215.198,65.709 213.608,62.239C212.885,60.215 212.09,58.552 211.223,57.251C210.933,56.962 210.644,56.709 210.355,56.492C210.066,56.275 209.705,56.312 209.271,56.601C208.548,57.034 208.187,57.757 208.187,58.769C208.187,59.781 208.042,60.793 207.753,61.805C207.464,62.817 207.355,63.866 207.428,64.95C207.5,66.034 207.536,67.155 207.536,68.311C207.536,69.902 207.536,71.492 207.536,73.082C207.536,74.672 207.464,76.263 207.319,77.853L207.319,149.634C207.319,150.791 207.03,151.73 206.452,152.453C205.873,153.465 204.789,154.116 203.199,154.405C202.187,154.694 201.102,154.803 199.946,154.73C198.789,154.658 197.633,154.622 196.476,154.622L185.199,154.622C183.609,154.622 182.163,154.586 180.862,154.513C179.561,154.441 178.477,154.044 177.609,153.321C176.742,152.598 176.236,151.477 176.091,149.959C175.947,148.441 175.874,146.887 175.874,145.297L175.874,126.213L175.874,45.541L175.874,15.18L175.874,8.458C175.874,7.301 175.947,6.181 176.091,5.096C176.236,4.012 176.453,3.181 176.742,2.602C177.32,1.59 178.477,0.867 180.211,0.434C180.501,0.289 180.79,0.253 181.079,0.325C181.368,0.398 181.657,0.361 181.946,0.217Z" style="fill:rgb(11,11,11);fill-rule:nonzero;"/>
                </g>
                <g transform="matrix(1.83574,0,0,3.57607,0,0)">
                    <path d="M502.684,149.851C502.973,150.718 502.937,151.514 502.575,152.236C502.214,152.959 501.816,153.465 501.383,153.754C500.515,154.477 499.322,154.803 497.804,154.73C496.286,154.658 494.732,154.622 493.142,154.622L481.214,154.622C478.901,154.622 476.877,154.513 475.142,154.297C473.408,154.08 472.106,153.248 471.239,151.803C470.082,149.923 469.432,147.61 469.287,144.863C469.143,142.116 468.781,139.514 468.203,137.056C468.203,136.478 468.167,135.936 468.094,135.43C468.022,134.924 467.986,134.454 467.986,134.02C467.552,132.285 467.335,130.442 467.335,128.49C467.335,126.538 467.191,124.767 466.902,123.177C466.757,122.743 466.685,122.093 466.685,121.225C466.396,119.635 466.143,118.009 465.926,116.346C465.709,114.683 465.384,113.057 464.95,111.467C463.793,108.141 462.42,105.178 460.83,102.575C459.239,99.973 456.998,98.021 454.107,96.72C453.384,96.431 452.661,96.214 451.938,96.069C451.215,95.925 450.42,95.708 449.553,95.419C446.95,94.551 443.951,94.118 440.553,94.118C437.156,94.118 433.794,94.118 430.469,94.118L412.686,94.118C411.53,94.407 410.518,94.624 409.65,94.768C408.783,94.913 408.06,95.347 407.482,96.069C406.325,97.515 405.819,99.756 405.964,102.792C406.108,105.828 406.181,108.575 406.181,111.033L406.181,138.791C406.181,139.948 406.144,141.14 406.072,142.369C406,143.598 405.964,144.791 405.964,145.947C405.964,147.104 405.964,148.152 405.964,149.092C405.964,150.032 405.819,150.863 405.53,151.586C405.096,152.887 404.229,153.754 402.928,154.188C402.205,154.477 401.337,154.622 400.325,154.622C399.313,154.622 398.229,154.622 397.072,154.622L387.314,154.622C385.001,154.622 382.543,154.658 379.94,154.73C377.338,154.803 375.386,154.333 374.085,153.321C372.929,152.598 372.35,151.261 372.35,149.309C372.35,147.357 372.35,145.441 372.35,143.562L372.35,11.71C372.35,10.12 372.314,8.458 372.242,6.723C372.17,4.988 372.495,3.614 373.218,2.602C373.796,1.735 374.88,1.012 376.471,0.434C376.76,0.289 377.085,0.253 377.447,0.325C377.808,0.398 378.133,0.361 378.422,0.217L452.155,0.217C454.468,0.217 456.673,0.253 458.769,0.325C460.866,0.398 462.854,0.651 464.733,1.084C465.456,1.373 466.215,1.518 467.01,1.518C467.805,1.518 468.564,1.663 469.287,1.952C470.299,2.241 471.311,2.53 472.323,2.819C473.335,3.108 474.347,3.47 475.359,3.903C478.974,5.494 482.299,7.446 485.335,9.759C488.371,12.072 490.901,14.747 492.925,17.783C493.503,18.505 493.973,19.264 494.335,20.06C494.696,20.855 495.166,21.614 495.744,22.337C496.901,24.361 497.768,26.457 498.347,28.626C498.925,30.794 499.575,33.18 500.298,35.782C500.443,36.36 500.479,36.939 500.407,37.517C500.334,38.095 500.443,38.674 500.732,39.252L500.732,41.204C501.021,42.36 501.093,43.77 500.949,45.432C500.804,47.095 500.587,48.432 500.298,49.444C500.009,50.601 499.865,51.649 499.865,52.589C499.865,53.529 499.72,54.504 499.431,55.516C498.708,57.685 497.985,59.745 497.262,61.697C496.539,63.649 495.6,65.492 494.443,67.227C494.154,67.661 493.792,68.13 493.359,68.636C492.925,69.143 492.564,69.612 492.274,70.046C491.841,70.624 491.371,71.203 490.865,71.781C490.359,72.359 489.817,72.865 489.238,73.299C488.371,74.022 487.503,74.745 486.636,75.468C485.769,76.19 484.829,76.913 483.817,77.636C483.239,78.07 482.66,78.54 482.082,79.046C481.504,79.552 481.07,80.166 480.781,80.889C480.492,81.757 480.636,82.479 481.214,83.058C481.793,83.636 482.299,84.07 482.733,84.359C484.178,85.516 485.624,86.672 487.07,87.829C488.515,88.985 489.744,90.359 490.756,91.949C492.491,94.407 493.865,96.937 494.877,99.539C495.889,102.142 496.828,105.105 497.696,108.43C497.985,109.732 498.166,111.105 498.238,112.551C498.31,113.997 498.491,115.37 498.78,116.671C498.78,117.539 498.816,118.37 498.889,119.165C498.961,119.96 498.997,120.792 498.997,121.659C499.142,122.237 499.178,122.852 499.106,123.502C499.033,124.153 499.069,124.84 499.214,125.563C499.359,126.141 499.395,126.719 499.322,127.297C499.25,127.876 499.286,128.526 499.431,129.249C499.72,130.695 499.865,132.213 499.865,133.803C499.865,135.394 500.009,136.912 500.298,138.357L500.949,142.261C501.238,143.562 501.527,144.863 501.816,146.164C502.105,147.465 502.395,148.694 502.684,149.851ZM466.902,52.047C467.191,50.456 467.227,48.505 467.01,46.191C466.793,43.878 466.54,42.143 466.251,40.987C465.962,40.408 465.817,39.902 465.817,39.469C465.817,39.035 465.673,38.601 465.384,38.168C463.649,33.686 460.468,30.433 455.842,28.409C453.384,27.252 450.565,26.602 447.384,26.457C444.204,26.312 440.878,26.24 437.409,26.24L412.253,26.24C411.964,26.529 411.674,26.638 411.385,26.565C411.096,26.493 410.807,26.457 410.518,26.457C408.783,26.891 407.626,27.614 407.048,28.626C406.325,29.782 406,31.264 406.072,33.071C406.144,34.878 406.181,36.65 406.181,38.384L406.181,63.757C406.181,65.492 406.542,66.865 407.265,67.877C407.843,68.745 408.783,69.323 410.084,69.612C411.385,69.902 412.831,70.118 414.421,70.263C416.012,70.408 417.674,70.444 419.409,70.371C421.144,70.299 422.662,70.263 423.963,70.263L436.758,70.263C437.77,70.263 438.854,70.299 440.011,70.371C441.168,70.444 442.18,70.335 443.047,70.046L445.866,70.046C447.023,69.757 448.143,69.612 449.228,69.612C450.312,69.612 451.36,69.468 452.372,69.179C454.83,68.456 456.998,67.516 458.878,66.359C460.757,65.203 462.348,63.685 463.649,61.805C464.516,60.504 465.167,59.058 465.601,57.468C466.034,55.878 466.468,54.071 466.902,52.047Z" style="fill:rgb(11,11,11);fill-rule:nonzero;"/>
                </g>
            </g>
        </g>
    </g>
</svg>
